<svg width="26" height="26" viewBox="0 0 26 26" fill="none" xmlns="http://www.w3.org/2000/svg">
<g clip-path="url(#clip0_711_5024)">
<path d="M21.9375 17.875C21.32 17.875 20.7261 18.1106 20.2792 18.5331L17.0211 16.575C17.0617 16.3556 17.0617 16.1273 17.0211 15.9079L20.2711 13.9498L20.2702 13.949C21.2534 14.859 22.789 14.794 23.699 13.8108C24.609 12.8196 24.544 11.284 23.5609 10.374C22.5696 9.45584 21.034 9.52084 20.124 10.504C19.7015 10.9508 19.474 11.544 19.474 12.1533C19.474 12.259 19.4821 12.3727 19.5065 12.4783L16.2484 14.4283C15.2652 13.5021 13.7215 13.5508 12.7952 14.534C11.869 15.509 11.9177 17.0527 12.9009 17.979C13.8352 18.8565 15.2896 18.8565 16.2321 17.979L19.4821 19.929C19.4577 20.0346 19.4496 20.1483 19.4415 20.254C19.4415 21.5946 20.5302 22.6915 21.879 22.6915C23.2196 22.6915 24.3165 21.5946 24.3165 20.254C24.3165 18.9052 23.2196 17.8165 21.879 17.8165L21.9375 17.875ZM21.9375 11.375C22.3844 11.375 22.75 11.7325 22.75 12.1875C22.75 12.6343 22.3844 13 21.9375 13C21.4825 13 21.125 12.6343 21.125 12.1875C21.125 11.7325 21.4825 11.375 21.9375 11.375ZM14.625 17.0625C14.17 17.0625 13.8125 16.6968 13.8125 16.25C13.8125 15.795 14.17 15.4375 14.625 15.4375C15.0719 15.4375 15.4375 15.795 15.4375 16.25C15.4294 16.6968 15.0719 17.0543 14.625 17.0625ZM21.9375 21.125C21.4825 21.125 21.125 20.7593 21.125 20.3125C21.125 19.8575 21.4825 19.5 21.9375 19.5C22.3844 19.5 22.75 19.8575 22.75 20.3125C22.7419 20.7593 22.3844 21.1168 21.9375 21.125Z" fill="#3959FF"/>
<path d="M5.6875 5.6875C5.47201 5.6875 5.26535 5.7731 5.11298 5.92548C4.9606 6.07785 4.875 6.28451 4.875 6.5C4.875 6.71549 4.9606 6.92215 5.11298 7.07452C5.26535 7.2269 5.47201 7.3125 5.6875 7.3125C5.90299 7.3125 6.10965 7.2269 6.26202 7.07452C6.4144 6.92215 6.5 6.71549 6.5 6.5C6.5 6.28451 6.4144 6.07785 6.26202 5.92548C6.10965 5.7731 5.90299 5.6875 5.6875 5.6875Z" fill="#3959FF"/>
<path d="M5.6875 12.1875C5.47201 12.1875 5.26535 12.2731 5.11298 12.4255C4.9606 12.5778 4.875 12.7845 4.875 13C4.875 13.2155 4.9606 13.4222 5.11298 13.5745C5.26535 13.7269 5.47201 13.8125 5.6875 13.8125C5.90299 13.8125 6.10965 13.7269 6.26202 13.5745C6.4144 13.4222 6.5 13.2155 6.5 13C6.5 12.7845 6.4144 12.5778 6.26202 12.4255C6.10965 12.2731 5.90299 12.1875 5.6875 12.1875Z" fill="#3959FF"/>
<path d="M5.6875 18.6875C5.47201 18.6875 5.26535 18.7731 5.11298 18.9255C4.9606 19.0778 4.875 19.2845 4.875 19.5C4.875 19.7155 4.9606 19.9222 5.11298 20.0745C5.26535 20.2269 5.47201 20.3125 5.6875 20.3125C5.90299 20.3125 6.10965 20.2269 6.26202 20.0745C6.4144 19.9222 6.5 19.7155 6.5 19.5C6.5 19.2845 6.4144 19.0778 6.26202 18.9255C6.10965 18.7731 5.90299 18.6875 5.6875 18.6875Z" fill="#3959FF"/>
<path d="M17.875 10.5625V4.0625C17.8669 3.16062 17.1438 2.4375 16.25 2.4375H3.25C2.34812 2.4375 1.625 3.16062 1.625 4.0625V21.9375C1.625 22.8312 2.34812 23.5544 3.25 23.5625H16.25V21.9375H3.25V17.0625H9.75V15.4375H3.25V10.5625H17.875ZM3.25 4.0625H16.25V8.9375H3.25V4.0625Z" fill="#3959FF"/>
</g>
<defs>
<clipPath id="clip0_711_5024">
<rect width="26" height="26" fill="white"/>
</clipPath>
</defs>
</svg>
