<svg width="26" height="26" viewBox="0 0 26 26" fill="none" xmlns="http://www.w3.org/2000/svg">
<g clip-path="url(#clip0_711_5040)">
<path d="M22.75 16.25H21.125V17.875H22.75V22.75H3.25V17.875H11.375V16.25H3.25C2.34812 16.25 1.625 16.9731 1.625 17.875V22.75C1.625 23.6438 2.34812 24.3669 3.25 24.375H22.75C23.6437 24.3669 24.3669 23.6438 24.375 22.75V17.875C24.3669 16.9731 23.6437 16.25 22.75 16.25Z" fill="#3959FF"/>
<path d="M5.6875 19.5C5.47201 19.5 5.26535 19.5856 5.11298 19.738C4.9606 19.8903 4.875 20.097 4.875 20.3125C4.875 20.528 4.9606 20.7347 5.11298 20.887C5.26535 21.0394 5.47201 21.125 5.6875 21.125C5.90299 21.125 6.10965 21.0394 6.26202 20.887C6.4144 20.7347 6.5 20.528 6.5 20.3125C6.5 20.097 6.4144 19.8903 6.26202 19.738C6.10965 19.5856 5.90299 19.5 5.6875 19.5Z" fill="#3959FF"/>
<path d="M24.375 6.5H17.875V11.375H13V17.875H19.5V13H24.375V6.5ZM17.875 16.25H14.625V13H17.875V16.25ZM22.75 11.375H19.5V8.125H22.75V11.375Z" fill="#3959FF"/>
<path d="M14.625 8.125H8.125V1.625H14.625V8.125ZM9.75 6.5H13V3.25H9.75V6.5Z" fill="#3959FF"/>
</g>
<defs>
<clipPath id="clip0_711_5040">
<rect width="26" height="26" fill="white"/>
</clipPath>
</defs>
</svg>
